<?xml version="1.0" encoding="UTF-8"?>
<svg id="Layer_2" data-name="Layer 2" xmlns="http://www.w3.org/2000/svg" viewBox="0 0 288.17 40">
  <defs>
    <style>
      .cls-1 {
        fill: #65a3db;
      }

      .cls-2 {
        fill: #6993c4;
      }

      .cls-3 {
        fill: #ef8889;
      }

      .cls-4 {
        fill: #ec8892;
      }

      .cls-5 {
        fill: #ef878d;
      }

      .cls-6 {
        fill: #fff;
      }

      .cls-7 {
        fill: #f5c3c6;
      }

      .cls-8 {
        fill: #f2a4a7;
      }

      .cls-9 {
        fill: #f2a3ac;
      }

      .cls-10 {
        fill: #7fb4e9;
      }

      .cls-11 {
        fill: #82313f;
      }

      .cls-12 {
        fill: #64a3db;
      }

      .cls-13 {
        fill: #99a7d1;
      }

      .cls-14 {
        fill: #98566b;
      }

      .cls-15 {
        fill: #a084a3;
      }

      .cls-16 {
        fill: #84b2e5;
      }

      .cls-17 {
        fill: #b3bbe2;
      }

      .cls-18 {
        fill: #908bb0;
      }

      .cls-19 {
        fill: #b54e57;
      }

      .cls-20 {
        fill: #bc7b90;
      }

      .cls-21 {
        fill: #bf6e7f;
      }

      .cls-22 {
        fill: #db8d9e;
      }

      .cls-23 {
        fill: #ad9ec0;
      }

      .cls-24 {
        fill: #e36e73;
      }

      .cls-25 {
        fill: #447db4;
      }

      .cls-26 {
        fill: #948aad;
      }

      .cls-27 {
        fill: #646b93;
      }

      .cls-28 {
        fill: #58719f;
      }

      .cls-29 {
        fill: #5573a1;
      }

      .cls-30 {
        fill: #5a2f49;
      }

      .cls-31 {
        fill: #58243b;
      }

      .cls-32 {
        fill: #2f5181;
      }

      .cls-33 {
        fill: #633953;
      }

      .cls-34 {
        fill: #496e9f;
      }

      .cls-35 {
        fill: #796282;
      }

      .cls-36 {
        fill: #5d9ad1;
      }

      .cls-37 {
        fill: #835f7b;
      }

      .cls-38 {
        fill: #7bb7ef;
      }
    </style>
  </defs>
  <g id="web-site-logo">
    <g id="colorized">
      <polygon class="cls-5" points="6.59 7.55 19.75 7.55 12.09 26.93 6.59 7.55"/>
      <polygon class="cls-24" points="19.75 7.55 6.59 7.55 13.19 0 19.75 7.55"/>
      <polygon class="cls-11" points="33.58 7.55 20.35 7.55 27.07 0 33.58 7.55"/>
      <polygon class="cls-21" points="20.35 7.55 27.97 26.93 33.58 7.55 20.35 7.55"/>
      <polygon class="cls-4" points="20.09 14.16 11.96 34.51 28.07 34.51 20.09 14.16"/>
      <polygon class="cls-9" points="20 40 28.07 34.51 11.96 34.51 20 40"/>
      <polygon class="cls-8" points="0 0 0 40 11.43 34.51 3.83 7.55 0 0"/>
      <polygon class="cls-31" points="38.61 7.55 38.56 40 36.18 7.55 38.61 7.55"/>
      <polygon class="cls-3" points="0 0 3.83 7.55 6.59 7.55 13.19 0 0 0"/>
      <polygon class="cls-19" points="13.19 0 19.75 7.55 20.35 7.55 27.07 0 13.19 0"/>
      <polygon class="cls-7" points="0 40 11.43 34.51 11.96 34.51 20 40 0 40"/>
      <polygon class="cls-22" points="28.55 34.51 38.56 40 20 40 28.07 34.51 28.55 34.51"/>
      <polygon class="cls-20" points="27.07 0 33.58 7.55 38.62 0 27.07 0"/>
      <polygon class="cls-35" points="46.1 7.55 38.62 0 53.41 0 46.1 7.55"/>
      <polygon class="cls-37" points="38.56 40 44.5 10.17 44.5 34.51 38.56 40"/>
      <polygon class="cls-23" points="53.38 40 47.42 34.51 47.37 10.17 53.38 40"/>
      <polygon class="cls-15" points="44.5 34.51 38.56 40 53.38 40 47.42 34.51 44.5 34.51"/>
      <polygon class="cls-27" points="53.38 40 53.36 10.17 57.31 7.55 57.23 34.51 53.38 40"/>
      <polygon class="cls-29" points="70.71 18.66 59.85 18.66 59.85 10.04 70.71 18.66"/>
      <polygon class="cls-16" points="70.71 18.66 59.85 10.04 70.71 10.17 70.71 18.66"/>
      <polygon class="cls-28" points="59.85 34.51 59.85 21.28 70.71 21.28 59.85 34.51"/>
      <polygon class="cls-2" points="70.71 34.51 59.85 34.51 70.71 21.28 70.71 34.51"/>
      <polygon class="cls-30" points="38.62 0 33.58 7.55 46.1 7.55 38.62 0"/>
      <polygon class="cls-18" points="46.1 7.55 53.41 0 57.31 7.55 46.1 7.55"/>
      <polygon class="cls-32" points="53.41 0 57.31 7.55 70.76 7.49 74.75 0 53.41 0"/>
      <polygon class="cls-13" points="57.23 34.51 53.38 40 65.39 40 59.85 34.51 57.23 34.51"/>
      <polygon class="cls-10" points="70.71 34.51 65.39 40 74.75 40 70.71 34.51"/>
      <polygon class="cls-17" points="53.36 7.55 53.36 10.17 57.23 34.51 57.31 7.55 53.36 7.55"/>
      <polygon class="cls-33" points="38.6 10.17 44.5 10.17 38.56 40 38.6 10.17"/>
      <polygon class="cls-26" points="47.42 10.17 53.38 40 53.36 10.17 47.42 10.17"/>
      <polygon class="cls-25" points="70.71 18.66 70.71 10.17 74.75 14.4 70.71 18.66"/>
      <polygon class="cls-38" points="70.71 21.28 70.71 34.51 74.75 27.73 70.71 21.28"/>
      <polygon class="cls-1" points="74.75 0 70.76 7.49 70.71 10.17 74.75 14.4 74.75 0"/>
      <polygon class="cls-36" points="74.75 14.4 70.71 18.66 70.71 21.28 74.75 27.73 74.75 14.4"/>
      <polygon class="cls-12" points="74.75 27.73 70.71 34.51 74.75 40 74.75 27.73"/>
      <polygon class="cls-14" points="36.18 7.55 28.55 34.51 38.56 40 36.18 7.55"/>
      <polygon class="cls-34" points="59.85 34.51 65.39 40 70.71 34.51 59.85 34.51"/>
    </g>
    <g id="GAMES-Text">
      <path class="cls-6" d="m95.26,22.19c0-1.73.26-3.37.77-4.93.51-1.56,1.26-2.93,2.23-4.11.98-1.18,2.18-2.12,3.6-2.81,1.42-.69,3.05-1.04,4.89-1.04,1.25,0,2.44.18,3.58.55s2.15.9,3.05,1.6c.9.71,1.65,1.56,2.27,2.56.61,1,1.02,2.14,1.23,3.41h-1.43c-.57-2.14-1.59-3.81-3.07-5.01-1.48-1.2-3.34-1.81-5.59-1.81-1.64,0-3.08.32-4.33.95-1.25.64-2.3,1.49-3.14,2.56-.84,1.07-1.48,2.3-1.91,3.7-.43,1.4-.65,2.86-.65,4.38s.21,3.01.63,4.38c.42,1.38,1.05,2.57,1.88,3.6s1.87,1.84,3.12,2.44c1.25.6,2.72.9,4.4.9,1.45,0,2.76-.24,3.92-.72,1.16-.48,2.14-1.15,2.95-2.01.81-.86,1.42-1.9,1.82-3.12.41-1.22.58-2.57.51-4.08h-8.97v-1.3h10.26v11.94h-1.3v-5.18h-.07c-.3.89-.74,1.69-1.33,2.4-.59.72-1.29,1.32-2.1,1.81-.81.49-1.71.87-2.69,1.14s-2.02.41-3.09.41c-1.84,0-3.47-.33-4.89-.99s-2.62-1.56-3.6-2.69-1.72-2.47-2.22-4.01c-.5-1.53-.75-3.18-.75-4.93Z"/>
      <path class="cls-6" d="m149.11,9.88h1.64l9.62,24.35h-1.6l-3.07-7.81h-11.66l-3.1,7.81h-1.6l9.79-24.35Zm6.1,15.24l-5.22-13.78h-.07l-5.42,13.78h10.71Z"/>
      <path class="cls-6" d="m182.56,9.88h2.15l9.51,22.68h.07l9.41-22.68h2.15v24.35h-1.5V11.72h-.07l-9.28,22.51h-1.5l-9.38-22.51h-.07v22.51h-1.5V9.88Z"/>
      <path class="cls-6" d="m230.61,9.88h16.37v1.3h-14.87v9.75h13.98v1.3h-13.98v10.71h15.04v1.3h-16.54V9.88Z"/>
      <path class="cls-6" d="m286.05,16.83c-.05-1.05-.27-1.95-.67-2.73-.4-.77-.94-1.42-1.62-1.94-.68-.52-1.5-.92-2.44-1.18-.94-.26-1.97-.39-3.09-.39-.68,0-1.42.08-2.2.24-.78.16-1.51.44-2.18.84-.67.4-1.22.93-1.65,1.6-.43.67-.65,1.51-.65,2.51s.24,1.77.72,2.39,1.1,1.11,1.88,1.48c.77.38,1.66.68,2.66.9,1,.23,2.01.44,3.04.65,1.04.2,2.06.45,3.05.73.99.28,1.88.67,2.66,1.16.78.49,1.42,1.12,1.89,1.91.48.78.72,1.77.72,2.95,0,1.27-.27,2.34-.82,3.21-.55.86-1.23,1.57-2.06,2.11-.83.55-1.75.94-2.76,1.18s-1.98.36-2.92.36c-1.43,0-2.77-.15-4.02-.46-1.25-.31-2.34-.81-3.27-1.5-.93-.69-1.67-1.59-2.2-2.68-.54-1.09-.79-2.42-.77-3.99h1.5c-.07,1.34.12,2.47.58,3.39.45.92,1.08,1.68,1.89,2.27.81.59,1.76,1.02,2.85,1.28,1.09.26,2.24.39,3.44.39.73,0,1.5-.09,2.33-.27.83-.18,1.59-.49,2.29-.92.69-.43,1.27-1,1.74-1.71.47-.7.7-1.59.7-2.66s-.24-1.86-.72-2.51c-.48-.65-1.11-1.17-1.89-1.57-.78-.4-1.67-.72-2.66-.95-.99-.24-2.01-.46-3.05-.67-1.02-.2-2.04-.44-3.04-.72-1-.27-1.89-.64-2.66-1.11-.77-.47-1.4-1.07-1.88-1.81-.48-.74-.72-1.69-.72-2.85s.24-2.15.73-2.98c.49-.83,1.12-1.5,1.91-2.01.79-.51,1.67-.89,2.64-1.13.98-.24,1.94-.36,2.9-.36,1.27,0,2.46.14,3.56.43,1.1.28,2.07.73,2.9,1.33.83.6,1.49,1.38,2,2.34.5.95.78,2.1.85,3.44h-1.5Z"/>
    </g>
  </g>
</svg>